<?xml version="1.0" encoding="UTF-8"?>
<!DOCTYPE svg PUBLIC "-//W3C//DTD SVG 1.1//EN" "http://www.w3.org/Graphics/SVG/1.1/DTD/svg11.dtd">
<!-- Creator: CorelDRAW 2018 (64-Bit) -->
<svg xmlns="http://www.w3.org/2000/svg" xml:space="preserve" width="0.130535in" height="0.132591in" version="1.1" style="shape-rendering:geometricPrecision; text-rendering:geometricPrecision; image-rendering:optimizeQuality; fill-rule:evenodd; clip-rule:evenodd"
viewBox="0 0 12.7 12.9"
 xmlns:xlink="http://www.w3.org/1999/xlink">
 <defs>
  <style type="text/css">
   <![CDATA[
    .fil0 {fill:white}
   ]]>
  </style>
 </defs>
 <g id="Layer_x0020_1">
  <metadata id="CorelCorpID_0Corel-Layer"/>
  <g id="_2260225669504">
   <g>
    <g>
     <path class="fil0" d="M3.83 0.81l-3.63 0c-0.11,0 -0.2,0.09 -0.2,0.2l0 3.63c0,0.11 0.09,0.2 0.2,0.2l3.63 0c0.11,0 0.2,-0.09 0.2,-0.2l0 -3.63c0,-0.11 -0.09,-0.2 -0.2,-0.2zm-0.2 3.63l-3.23 0 0 -3.23 3.23 0 0 3.23z"/>
    </g>
   </g>
   <g>
    <g>
     <path class="fil0" d="M4.64 0l-3.63 0c-0.11,0 -0.2,0.09 -0.2,0.2 0,0.11 0.09,0.2 0.2,0.2l3.43 0 0 3.43c0,0.11 0.09,0.2 0.2,0.2 0.11,0 0.2,-0.09 0.2,-0.2l0 -3.63c0,-0.11 -0.09,-0.2 -0.2,-0.2z"/>
    </g>
   </g>
   <g>
    <g>
     <path class="fil0" d="M1.15 0.06c-0.08,-0.08 -0.21,-0.08 -0.28,0l-0.81 0.81c-0.08,0.08 -0.08,0.21 0,0.28 0.04,0.04 0.09,0.06 0.14,0.06 0.05,0 0.1,-0.02 0.14,-0.06l0.81 -0.81c0.08,-0.08 0.08,-0.21 0,-0.29z"/>
    </g>
   </g>
   <g>
    <g>
     <path class="fil0" d="M4.78 3.69c-0.08,-0.08 -0.21,-0.08 -0.28,0l-0.81 0.81c-0.08,0.08 -0.08,0.21 0,0.29 0.04,0.04 0.09,0.06 0.14,0.06 0.05,0 0.1,-0.02 0.14,-0.06l0.81 -0.81c0.08,-0.08 0.08,-0.21 0,-0.28z"/>
    </g>
   </g>
   <g>
    <g>
     <path class="fil0" d="M4.78 0.06c-0.08,-0.08 -0.21,-0.08 -0.28,0l-0.81 0.81c-0.08,0.08 -0.08,0.21 0,0.28 0.04,0.04 0.09,0.06 0.14,0.06 0.05,0 0.1,-0.02 0.14,-0.06l0.81 -0.81c0.08,-0.08 0.08,-0.21 0,-0.29z"/>
    </g>
   </g>
   <g>
    <g>
     <path class="fil0" d="M3.83 8.87l-3.63 0c-0.11,0 -0.2,0.09 -0.2,0.2l0 3.63c0,0.11 0.09,0.2 0.2,0.2l3.63 0c0.11,0 0.2,-0.09 0.2,-0.2l0 -3.63c0,-0.11 -0.09,-0.2 -0.2,-0.2zm-0.2 3.63l-3.23 0 0 -3.23 3.23 0 0 3.23z"/>
    </g>
   </g>
   <g>
    <g>
     <path class="fil0" d="M4.64 8.06l-3.63 0c-0.11,0 -0.2,0.09 -0.2,0.2 0,0.11 0.09,0.2 0.2,0.2l3.43 0 0 3.43c0,0.11 0.09,0.2 0.2,0.2 0.11,0 0.2,-0.09 0.2,-0.2l0 -3.63c0,-0.11 -0.09,-0.2 -0.2,-0.2z"/>
    </g>
   </g>
   <g>
    <g>
     <path class="fil0" d="M1.15 8.12c-0.08,-0.08 -0.21,-0.08 -0.28,0l-0.81 0.81c-0.08,0.08 -0.08,0.21 0,0.28 0.04,0.04 0.09,0.06 0.14,0.06 0.05,0 0.1,-0.02 0.14,-0.06l0.81 -0.81c0.08,-0.08 0.08,-0.21 0,-0.28z"/>
    </g>
   </g>
   <g>
    <g>
     <path class="fil0" d="M4.78 11.75c-0.08,-0.08 -0.21,-0.08 -0.28,0l-0.81 0.81c-0.08,0.08 -0.08,0.21 0,0.28 0.04,0.04 0.09,0.06 0.14,0.06 0.05,0 0.1,-0.02 0.14,-0.06l0.81 -0.81c0.08,-0.08 0.08,-0.21 0,-0.29z"/>
    </g>
   </g>
   <g>
    <g>
     <path class="fil0" d="M4.78 8.12c-0.08,-0.08 -0.21,-0.08 -0.28,0l-0.81 0.81c-0.08,0.08 -0.08,0.21 0,0.28 0.04,0.04 0.09,0.06 0.14,0.06 0.05,0 0.1,-0.02 0.14,-0.06l0.81 -0.81c0.08,-0.08 0.08,-0.21 0,-0.28z"/>
    </g>
   </g>
   <g>
    <g>
     <path class="fil0" d="M2.42 7.05c-0.11,0 -0.2,0.09 -0.2,0.2l0 1.41c0,0.11 0.09,0.2 0.2,0.2 0.11,0 0.2,-0.09 0.2,-0.2l0 -1.41c0,-0.11 -0.09,-0.2 -0.2,-0.2z"/>
    </g>
   </g>
   <g>
    <g>
     <path class="fil0" d="M2.42 5.44c-0.44,0 -0.81,0.36 -0.81,0.81l0 0.81c0,0.44 0.36,0.81 0.81,0.81 0.44,0 0.81,-0.36 0.81,-0.81l0 -0.81c0,-0.44 -0.36,-0.81 -0.81,-0.81zm0.4 1.61c0,0.22 -0.18,0.4 -0.4,0.4 -0.22,0 -0.4,-0.18 -0.4,-0.4l0 -0.81c0,-0.22 0.18,-0.4 0.4,-0.4 0.22,0 0.4,0.18 0.4,0.4l0 0.81z"/>
    </g>
   </g>
   <g>
    <g>
     <path class="fil0" d="M2.42 4.43c-0.11,0 -0.2,0.09 -0.2,0.2l0 1.41c0,0.11 0.09,0.2 0.2,0.2 0.11,0 0.2,-0.09 0.2,-0.2l0 -1.41c0,-0.11 -0.09,-0.2 -0.2,-0.2z"/>
    </g>
   </g>
   <g>
    <g>
     <path class="fil0" d="M5.64 10.28l-1.41 0c-0.11,0 -0.2,0.09 -0.2,0.2 0,0.11 0.09,0.2 0.2,0.2l1.41 0c0.11,0 0.2,-0.09 0.2,-0.2 0,-0.11 -0.09,-0.2 -0.2,-0.2z"/>
    </g>
   </g>
   <g>
    <g>
     <path class="fil0" d="M6.65 9.67l-0.81 0c-0.44,0 -0.81,0.36 -0.81,0.81 0,0.44 0.36,0.81 0.81,0.81l0.81 0c0.44,0 0.81,-0.36 0.81,-0.81 0,-0.44 -0.36,-0.81 -0.81,-0.81zm0 1.21l-0.81 0c-0.22,0 -0.4,-0.18 -0.4,-0.4 0,-0.22 0.18,-0.4 0.4,-0.4l0.81 0c0.22,0 0.4,0.18 0.4,0.4 0,0.22 -0.18,0.4 -0.4,0.4z"/>
    </g>
   </g>
   <g>
    <g>
     <path class="fil0" d="M8.06 10.28l-1.21 0c-0.11,0 -0.2,0.09 -0.2,0.2 0,0.11 0.09,0.2 0.2,0.2l1.21 0c0.11,0 0.2,-0.09 0.2,-0.2 0,-0.11 -0.09,-0.2 -0.2,-0.2z"/>
    </g>
   </g>
   <g>
    <g>
     <path class="fil0" d="M5.64 2.21l-1.41 0c-0.11,0 -0.2,0.09 -0.2,0.2 0,0.11 0.09,0.2 0.2,0.2l1.41 0c0.11,0 0.2,-0.09 0.2,-0.2 0,-0.11 -0.09,-0.2 -0.2,-0.2z"/>
    </g>
   </g>
   <g>
    <g>
     <path class="fil0" d="M6.65 1.61l-0.81 0c-0.44,0 -0.81,0.36 -0.81,0.81 0,0.44 0.36,0.81 0.81,0.81l0.81 0c0.44,0 0.81,-0.36 0.81,-0.81 0,-0.44 -0.36,-0.81 -0.81,-0.81zm0 1.21l-0.81 0c-0.22,0 -0.4,-0.18 -0.4,-0.4 0,-0.22 0.18,-0.4 0.4,-0.4l0.81 0c0.22,0 0.4,0.18 0.4,0.4 0,0.22 -0.18,0.4 -0.4,0.4z"/>
    </g>
   </g>
   <g>
    <g>
     <path class="fil0" d="M8.06 2.21l-1.21 0c-0.11,0 -0.2,0.09 -0.2,0.2 0,0.11 0.09,0.2 0.2,0.2l1.21 0c0.11,0 0.2,-0.09 0.2,-0.2 0,-0.11 -0.09,-0.2 -0.2,-0.2z"/>
    </g>
   </g>
   <g>
    <g>
     <path class="fil0" d="M11.69 0.81l-3.63 0c-0.11,0 -0.2,0.09 -0.2,0.2l0 3.63c0,0.11 0.09,0.2 0.2,0.2l3.63 0c0.11,0 0.2,-0.09 0.2,-0.2l0 -3.63c0,-0.11 -0.09,-0.2 -0.2,-0.2zm-0.2 3.63l-3.23 0 0 -3.23 3.23 0 0 3.23z"/>
    </g>
   </g>
   <g>
    <g>
     <path class="fil0" d="M12.5 0l-3.63 0c-0.11,0 -0.2,0.09 -0.2,0.2 0,0.11 0.09,0.2 0.2,0.2l3.43 0 0 3.43c0,0.11 0.09,0.2 0.2,0.2 0.11,0 0.2,-0.09 0.2,-0.2l0 -3.63c0,-0.11 -0.09,-0.2 -0.2,-0.2z"/>
    </g>
   </g>
   <g>
    <g>
     <path class="fil0" d="M9.01 0.06c-0.08,-0.08 -0.21,-0.08 -0.28,0l-0.81 0.81c-0.08,0.08 -0.08,0.21 0,0.28 0.04,0.04 0.09,0.06 0.14,0.06 0.05,0 0.1,-0.02 0.14,-0.06l0.81 -0.81c0.08,-0.08 0.08,-0.21 0,-0.29z"/>
    </g>
   </g>
   <g>
    <g>
     <path class="fil0" d="M12.64 3.69c-0.08,-0.08 -0.21,-0.08 -0.28,0l-0.81 0.81c-0.08,0.08 -0.08,0.21 0,0.29 0.04,0.04 0.09,0.06 0.14,0.06 0.05,0 0.1,-0.02 0.14,-0.06l0.81 -0.81c0.08,-0.08 0.08,-0.21 0,-0.28z"/>
    </g>
   </g>
   <g>
    <g>
     <path class="fil0" d="M12.64 0.06c-0.08,-0.08 -0.21,-0.08 -0.28,0l-0.81 0.81c-0.08,0.08 -0.08,0.21 0,0.28 0.04,0.04 0.09,0.06 0.14,0.06 0.05,0 0.1,-0.02 0.14,-0.06l0.81 -0.81c0.08,-0.08 0.08,-0.21 0,-0.29z"/>
    </g>
   </g>
   <g>
    <g>
     <path class="fil0" d="M11.69 8.87l-3.63 0c-0.11,0 -0.2,0.09 -0.2,0.2l0 3.63c0,0.11 0.09,0.2 0.2,0.2l3.63 0c0.11,0 0.2,-0.09 0.2,-0.2l0 -3.63c0,-0.11 -0.09,-0.2 -0.2,-0.2zm-0.2 3.63l-3.23 0 0 -3.23 3.23 0 0 3.23z"/>
    </g>
   </g>
   <g>
    <g>
     <path class="fil0" d="M12.5 8.06l-3.63 0c-0.11,0 -0.2,0.09 -0.2,0.2 0,0.11 0.09,0.2 0.2,0.2l3.43 0 0 3.43c0,0.11 0.09,0.2 0.2,0.2 0.11,0 0.2,-0.09 0.2,-0.2l0 -3.63c0,-0.11 -0.09,-0.2 -0.2,-0.2z"/>
    </g>
   </g>
   <g>
    <g>
     <path class="fil0" d="M9.01 8.12c-0.08,-0.08 -0.21,-0.08 -0.28,0l-0.81 0.81c-0.08,0.08 -0.08,0.21 0,0.28 0.04,0.04 0.09,0.06 0.14,0.06 0.05,0 0.1,-0.02 0.14,-0.06l0.81 -0.81c0.08,-0.08 0.08,-0.21 0,-0.28z"/>
    </g>
   </g>
   <g>
    <g>
     <path class="fil0" d="M12.64 11.75c-0.08,-0.08 -0.21,-0.08 -0.28,0l-0.81 0.81c-0.08,0.08 -0.08,0.21 0,0.28 0.04,0.04 0.09,0.06 0.14,0.06 0.05,0 0.1,-0.02 0.14,-0.06l0.81 -0.81c0.08,-0.08 0.08,-0.21 0,-0.29z"/>
    </g>
   </g>
   <g>
    <g>
     <path class="fil0" d="M12.64 8.12c-0.08,-0.08 -0.21,-0.08 -0.28,0l-0.81 0.81c-0.08,0.08 -0.08,0.21 0,0.28 0.04,0.04 0.09,0.06 0.14,0.06 0.05,0 0.1,-0.02 0.14,-0.06l0.81 -0.81c0.08,-0.08 0.08,-0.21 0,-0.28z"/>
    </g>
   </g>
   <g>
    <g>
     <path class="fil0" d="M10.28 7.05c-0.11,0 -0.2,0.09 -0.2,0.2l0 1.41c0,0.11 0.09,0.2 0.2,0.2 0.11,0 0.2,-0.09 0.2,-0.2l0 -1.41c0,-0.11 -0.09,-0.2 -0.2,-0.2z"/>
    </g>
   </g>
   <g>
    <g>
     <path class="fil0" d="M10.28 5.44c-0.45,0 -0.81,0.36 -0.81,0.81l0 0.81c0,0.44 0.36,0.81 0.81,0.81 0.44,0 0.81,-0.36 0.81,-0.81l0 -0.81c0,-0.44 -0.36,-0.81 -0.81,-0.81zm0.4 1.61c0,0.22 -0.18,0.4 -0.4,0.4 -0.22,0 -0.4,-0.18 -0.4,-0.4l0 -0.81c0,-0.22 0.18,-0.4 0.4,-0.4 0.22,0 0.4,0.18 0.4,0.4l0 0.81z"/>
    </g>
   </g>
   <g>
    <g>
     <path class="fil0" d="M10.28 4.43c-0.11,0 -0.2,0.09 -0.2,0.2l0 1.41c0,0.11 0.09,0.2 0.2,0.2 0.11,0 0.2,-0.09 0.2,-0.2l0 -1.41c0,-0.11 -0.09,-0.2 -0.2,-0.2z"/>
    </g>
   </g>
  </g>
 </g>
</svg>
