<?xml version="1.0" encoding="UTF-8"?>
<!DOCTYPE svg PUBLIC "-//W3C//DTD SVG 1.1//EN" "http://www.w3.org/Graphics/SVG/1.1/DTD/svg11.dtd">
<!-- Creator: CorelDRAW 2018 (64-Bit) -->
<svg xmlns="http://www.w3.org/2000/svg" xml:space="preserve" width="0.14822in" height="0.138339in" version="1.1" style="shape-rendering:geometricPrecision; text-rendering:geometricPrecision; image-rendering:optimizeQuality; fill-rule:evenodd; clip-rule:evenodd"
viewBox="0 0 16.16 15.08"
 xmlns:xlink="http://www.w3.org/1999/xlink">
 <defs>
  <style type="text/css">
   <![CDATA[
    .fil0 {fill:white}
   ]]>
  </style>
 </defs>
 <g id="Layer_x0020_1">
  <metadata id="CorelCorpID_0Corel-Layer"/>
  <g id="_2263120656912">
   <g>
    <g>
     <path class="fil0" d="M15.35 7.27l0 -5.93c0,-0.74 -0.6,-1.35 -1.35,-1.35l-11.85 0c-0.74,0 -1.35,0.6 -1.35,1.35l0 4.04c-0.45,0 -0.81,0.36 -0.81,0.81l0 8.08c0,0.45 0.36,0.81 0.81,0.81l5.93 0c0.45,0 0.81,-0.36 0.81,-0.81l2.26 0c0.25,0 0.49,-0.12 0.64,-0.32 0.15,-0.2 0.2,-0.46 0.14,-0.7l-0.53 -1.94 1.53 0 0 2.96c0,0.45 0.36,0.81 0.81,0.81l2.96 0c0.45,0 0.81,-0.36 0.81,-0.81l0 -6.19c0,-0.45 -0.36,-0.81 -0.81,-0.81zm-8.35 7c0,0.15 -0.12,0.27 -0.27,0.27l-5.93 0c-0.15,0 -0.27,-0.12 -0.27,-0.27l0 -0.54 6.46 0 0 0.54zm0 -1.08l-6.46 0 0 -5.92 6.46 0 0 5.92zm0 -6.46l-6.46 0 0 -0.54c0,-0.15 0.12,-0.27 0.27,-0.27l5.93 0c0.15,0 0.27,0.12 0.27,0.27l0 0.54zm3.06 6.66c0.02,0.08 0.01,0.17 -0.05,0.23 -0.05,0.07 -0.13,0.11 -0.21,0.11l-2.26 0 0 -0.54 2.46 0 0.05 0.2zm-2.52 -0.74l0 -1.35 1.95 0 0.37 1.35 -2.32 0zm4.04 -1.89l-4.04 0 0 -1.62 4.04 0 0 1.62zm0 -2.69l0 0.54 -4.04 0 0 -2.42c0,-0.45 -0.36,-0.81 -0.81,-0.81l-5.39 0 0 -4.04c0,-0.45 0.36,-0.81 0.81,-0.81l11.85 0c0.45,0 0.81,0.36 0.81,0.81l0 5.93 -2.42 0c-0.45,0 -0.81,0.36 -0.81,0.81zm4.04 6.19c0,0.15 -0.12,0.27 -0.27,0.27l-2.96 0c-0.15,0 -0.27,-0.12 -0.27,-0.27l0 -0.54 3.5 0 0 0.54zm0 -1.08l-3.5 0 0 -4.04 3.5 0 0 4.04zm0 -4.58l-3.5 0 0 -0.54c0,-0.15 0.12,-0.27 0.27,-0.27l2.96 0c0.15,0 0.27,0.12 0.27,0.27l0 0.54z"/>
    </g>
   </g>
   <g>
    <g>
     <rect class="fil0" transform="matrix(0.029113 -0.029113 0.029113 0.029113 1.42538 11.1207)" width="37" height="13.08"/>
    </g>
   </g>
   <g>
    <g>
     <rect class="fil0" transform="matrix(0.029113 -0.029113 0.029113 0.029113 2.50255 11.9287)" width="111.01" height="13.08"/>
    </g>
   </g>
   <g>
    <g>
     <rect class="fil0" transform="matrix(0.029113 -0.029113 0.029113 0.029113 3.04116 9.50512)" width="55.5" height="13.08"/>
    </g>
   </g>
   <g>
    <g>
     <rect class="fil0" transform="matrix(0.029113 -0.029113 0.029113 0.029113 12.7363 11.1211)" width="46.25" height="13.08"/>
    </g>
   </g>
   <g>
    <g>
     <rect class="fil0" transform="matrix(0.029113 -0.029113 0.029113 0.029113 13.2748 12.1995)" width="46.25" height="13.08"/>
    </g>
   </g>
   <g>
    <g>
     <rect class="fil0" transform="matrix(0.029113 -0.029113 0.029113 0.029113 7.08086 4.65732)" width="55.5" height="13.08"/>
    </g>
   </g>
   <g>
    <g>
     <rect class="fil0" transform="matrix(0.029113 -0.029113 0.029113 0.029113 9.50488 4.11869)" width="55.5" height="13.08"/>
    </g>
   </g>
   <g>
    <g>
     <rect class="fil0" transform="matrix(0.029113 -0.029113 0.029113 0.029113 7.88875 5.73491)" width="37" height="13.08"/>
    </g>
   </g>
   <g>
    <g>
     <rect class="fil0" transform="matrix(0.029113 -0.029113 0.029113 0.029113 9.23382 2.50619)" width="37.1" height="13.08"/>
    </g>
   </g>
   <g>
    <g>
     <rect class="fil0" x="1.89" y="1.08" width="0.54" height="0.54"/>
    </g>
   </g>
   <g>
    <g>
     <rect class="fil0" x="2.96" y="1.08" width="0.54" height="0.54"/>
    </g>
   </g>
   <g>
    <g>
     <rect class="fil0" x="4.04" y="1.08" width="0.54" height="0.54"/>
    </g>
   </g>
  </g>
 </g>
</svg>
