<?xml version="1.0" encoding="UTF-8"?>
<!DOCTYPE svg PUBLIC "-//W3C//DTD SVG 1.1//EN" "http://www.w3.org/Graphics/SVG/1.1/DTD/svg11.dtd">
<!-- Creator: CorelDRAW 2018 (64-Bit) -->
<svg xmlns="http://www.w3.org/2000/svg" xml:space="preserve" width="0.156213in" height="0.12485in" version="1.1" style="shape-rendering:geometricPrecision; text-rendering:geometricPrecision; image-rendering:optimizeQuality; fill-rule:evenodd; clip-rule:evenodd"
viewBox="0 0 17.84 14.26"
 xmlns:xlink="http://www.w3.org/1999/xlink">
 <defs>
  <style type="text/css">
   <![CDATA[
    .fil0 {fill:white}
   ]]>
  </style>
 </defs>
 <g id="Layer_x0020_1">
  <metadata id="CorelCorpID_0Corel-Layer"/>
  <g id="_2222870484336">
   <g>
    <g>
     <path class="fil0" d="M8.92 3.54c-1.97,0 -3.2,1.01 -3.2,2.65 0,0.19 0.15,0.34 0.34,0.34l5.72 0c0.19,0 0.34,-0.15 0.34,-0.34 0,-1.63 -1.23,-2.65 -3.2,-2.65zm-2.5 2.31c0.22,-1.51 1.95,-1.64 2.5,-1.64 0.55,0 2.28,0.12 2.5,1.64l-5 0z"/>
    </g>
   </g>
   <g>
    <g>
     <path class="fil0" d="M8.92 0c-0.88,0 -1.6,0.72 -1.6,1.6 0,0.88 0.72,1.6 1.6,1.6 0.88,0 1.6,-0.72 1.6,-1.6 0,-0.88 -0.72,-1.6 -1.6,-1.6zm0 2.53c-0.51,0 -0.93,-0.41 -0.93,-0.93 0,-0.51 0.41,-0.93 0.93,-0.93 0.51,0 0.93,0.41 0.93,0.93 0,0.51 -0.41,0.93 -0.93,0.93z"/>
    </g>
   </g>
   <g>
    <g>
     <path class="fil0" d="M3.2 11.28c-1.97,0 -3.2,1.01 -3.2,2.65 0,0.19 0.15,0.34 0.34,0.34l5.72 0c0.19,0 0.34,-0.15 0.34,-0.34 0,-1.63 -1.23,-2.65 -3.2,-2.65zm-2.5 2.31c0.22,-1.51 1.95,-1.64 2.5,-1.64 0.56,0 2.28,0.13 2.5,1.64l-5 0z"/>
    </g>
   </g>
   <g>
    <g>
     <path class="fil0" d="M3.2 7.74c-0.88,0 -1.6,0.72 -1.6,1.6 0,0.88 0.72,1.6 1.6,1.6 0.88,0 1.6,-0.72 1.6,-1.6 0,-0.88 -0.72,-1.6 -1.6,-1.6zm0 2.52c-0.51,0 -0.93,-0.41 -0.93,-0.93 0,-0.51 0.41,-0.93 0.93,-0.93 0.51,0 0.93,0.41 0.93,0.93 0,0.51 -0.41,0.93 -0.93,0.93z"/>
    </g>
   </g>
   <g>
    <g>
     <path class="fil0" d="M14.65 11.28c-1.97,0 -3.2,1.01 -3.2,2.65 0,0.19 0.15,0.34 0.34,0.34l5.72 0c0.19,0 0.34,-0.15 0.34,-0.34 0,-1.63 -1.23,-2.65 -3.2,-2.65zm-2.5 2.31c0.22,-1.51 1.95,-1.64 2.5,-1.64 0.56,0 2.28,0.13 2.5,1.64l-5 0z"/>
    </g>
   </g>
   <g>
    <g>
     <path class="fil0" d="M14.65 7.74c-0.88,0 -1.6,0.72 -1.6,1.6 0,0.88 0.72,1.6 1.6,1.6 0.88,0 1.6,-0.72 1.6,-1.6 0,-0.88 -0.72,-1.6 -1.6,-1.6zm0 2.52c-0.51,0 -0.93,-0.41 -0.93,-0.93 0,-0.51 0.41,-0.93 0.93,-0.93 0.51,0 0.93,0.41 0.93,0.93 0,0.51 -0.41,0.93 -0.93,0.93z"/>
    </g>
   </g>
   <g>
    <g>
     <path class="fil0" d="M10.66 10.7l-1.4 -1.41 0 -1.99c0,-0.19 -0.15,-0.34 -0.34,-0.34 -0.19,0 -0.34,0.15 -0.34,0.34l0 1.99 -1.4 1.4c-0.13,0.13 -0.13,0.35 -0,0.48 0.13,0.13 0.34,0.13 0.48,0l1.27 -1.27 1.27 1.27c0.14,0.12 0.35,0.1 0.47,-0.04 0.11,-0.13 0.11,-0.31 0,-0.44z"/>
    </g>
   </g>
  </g>
 </g>
</svg>
