<?xml version="1.0" encoding="UTF-8"?>
<!DOCTYPE svg PUBLIC "-//W3C//DTD SVG 1.1//EN" "http://www.w3.org/Graphics/SVG/1.1/DTD/svg11.dtd">
<!-- Creator: CorelDRAW 2018 (64-Bit) -->
<svg xmlns="http://www.w3.org/2000/svg" xml:space="preserve" width="0.149992in" height="0.149992in" version="1.1" style="shape-rendering:geometricPrecision; text-rendering:geometricPrecision; image-rendering:optimizeQuality; fill-rule:evenodd; clip-rule:evenodd"
viewBox="0 0 16.53 16.53"
 xmlns:xlink="http://www.w3.org/1999/xlink">
 <defs>
  <style type="text/css">
   <![CDATA[
    .fil0 {fill:white}
   ]]>
  </style>
 </defs>
 <g id="Layer_x0020_1">
  <metadata id="CorelCorpID_0Corel-Layer"/>
  <path class="fil0" d="M16.53 8.26c0,-4.56 -3.71,-8.26 -8.26,-8.26 -4.56,0 -8.26,3.71 -8.26,8.26 0,2.41 1.04,4.58 2.68,6.09l-0.01 0.01 0.27 0.23c0.02,0.01 0.04,0.03 0.05,0.04 0.14,0.12 0.29,0.23 0.44,0.34 0.05,0.04 0.1,0.07 0.15,0.1 0.16,0.11 0.33,0.22 0.49,0.31 0.04,0.02 0.07,0.04 0.11,0.06 0.18,0.1 0.37,0.2 0.56,0.29 0.01,0.01 0.03,0.01 0.04,0.02 0.63,0.29 1.3,0.51 2,0.63 0.02,0 0.04,0.01 0.06,0.01 0.22,0.04 0.44,0.07 0.66,0.09 0.03,0 0.05,0 0.08,0.01 0.22,0.02 0.45,0.03 0.67,0.03 0.23,0 0.45,-0.01 0.67,-0.03 0.03,-0 0.06,-0 0.08,-0.01 0.22,-0.02 0.44,-0.05 0.65,-0.09 0.02,-0 0.04,-0.01 0.06,-0.01 0.69,-0.12 1.35,-0.33 1.97,-0.62 0.02,-0.01 0.05,-0.02 0.07,-0.03 0.19,-0.09 0.37,-0.18 0.54,-0.28 0.04,-0.02 0.09,-0.05 0.13,-0.08 0.16,-0.1 0.32,-0.19 0.47,-0.3 0.06,-0.04 0.11,-0.08 0.16,-0.12 0.13,-0.09 0.26,-0.19 0.39,-0.29 0.03,-0.02 0.06,-0.04 0.09,-0.07l0.28 -0.23 -0.01 -0.01c1.66,-1.51 2.71,-3.69 2.71,-6.11zm-15.92 0c0,-4.23 3.44,-7.66 7.66,-7.66 4.23,0 7.66,3.44 7.66,7.66 0,2.28 -1,4.32 -2.58,5.73 -0.09,-0.06 -0.18,-0.12 -0.27,-0.16l-2.54 -1.27c-0.23,-0.11 -0.37,-0.34 -0.37,-0.6l0 -0.89c0.06,-0.07 0.12,-0.16 0.19,-0.25 0.33,-0.47 0.59,-0.98 0.79,-1.54 0.38,-0.18 0.63,-0.56 0.63,-0.99l0 -1.07c0,-0.26 -0.1,-0.51 -0.27,-0.71l0 -1.4c0.02,-0.16 0.07,-1.04 -0.57,-1.76 -0.55,-0.63 -1.45,-0.95 -2.66,-0.95 -1.21,0 -2.11,0.32 -2.66,0.95 -0.64,0.73 -0.58,1.61 -0.57,1.76l0 1.4c-0.17,0.2 -0.27,0.45 -0.27,0.71l0 1.06c0,0.33 0.15,0.64 0.4,0.85 0.24,0.95 0.74,1.68 0.93,1.92l0 0.87c0,0.25 -0.13,0.47 -0.35,0.59l-2.38 1.3c-0.08,0.04 -0.15,0.09 -0.23,0.14 -1.56,-1.4 -2.55,-3.44 -2.55,-5.7z"/>
 </g>
</svg>
